<?xml version="1.0" encoding="UTF-8" standalone="no"?>
<!DOCTYPE svg PUBLIC "-//W3C//DTD SVG 1.1//EN" "http://www.w3.org/Graphics/SVG/1.1/DTD/svg11.dtd">
<svg width="100%" height="100%" viewBox="0 0 56 50" version="1.1" xmlns="http://www.w3.org/2000/svg" xmlns:xlink="http://www.w3.org/1999/xlink" xml:space="preserve" xmlns:serif="http://www.serif.com/" style="fill-rule:evenodd;clip-rule:evenodd;stroke-linejoin:round;stroke-miterlimit:2;">
    <g transform="matrix(1,0,0,1,-268.394,-99.4396)">
        <g id="图层-1" serif:id="图层 1">
            <g transform="matrix(-1,0,0,1,306.618,99.4396)">
                <path d="M21.01,50.533L38.224,50.533L-0.002,0L-17.214,0L21.01,50.533Z" style="fill:rgb(59,148,255);fill-rule:nonzero;"/>
            </g>
            <g transform="matrix(1,0,0,1,313.042,137.849)">
                <path d="M0,-2.947L-0.347,-3.433C-1.376,-4.932 -4.289,-9.726 -3.604,-15.07L-15.052,0.065L-6.422,12.123L10.79,12.123L0.007,-2.94L0,-2.947Z" style="fill:rgb(252,69,57);fill-rule:nonzero;"/>
            </g>
            <g transform="matrix(1,0,0,1,279.186,111.558)">
                <path d="M0,2.949L0.348,3.435C1.374,4.927 4.291,9.725 3.602,15.067L15.054,-0.066L6.422,-12.118L-10.792,-12.118L-0.005,2.939L0,2.949Z" style="fill:rgb(252,198,42);fill-rule:nonzero;"/>
            </g>
        </g>
    </g>
</svg>
